<svg width="147" height="52" viewBox="0 0 147 52" fill="none" xmlns="http://www.w3.org/2000/svg">
<g filter="url(#filter0_d_2105_223)">
<path d="M140.105 39.2312C140.105 39.7346 140.005 40.2331 139.812 40.6982C139.62 41.1633 139.337 41.5858 138.981 41.9416C138.624 42.2974 138.202 42.5795 137.736 42.7718C137.271 42.9641 136.772 43.0628 136.268 43.0623H10.7317C9.71422 43.0633 8.73797 42.6603 8.01766 41.9419C7.29735 41.2235 6.89195 40.2484 6.89062 39.2312V8.6798C6.89195 7.66213 7.29719 6.68658 8.01736 5.96735C8.73752 5.24813 9.71376 4.84401 10.7317 4.84375H136.267C136.771 4.84375 137.27 4.94298 137.736 5.13577C138.201 5.32856 138.624 5.61114 138.98 5.96737C139.337 6.32359 139.619 6.74648 139.812 7.21189C140.005 7.67729 140.104 8.17609 140.104 8.6798L140.105 39.2312Z" fill="black"/>
<path d="M136.268 44H10.7316C9.47813 43.9997 8.27601 43.5024 7.38896 42.6171C6.50191 41.7318 6.00238 40.5308 6 39.2777L6 8.7273C6.00185 7.47359 6.50105 6.27181 7.38807 5.38558C8.27509 4.49936 9.47751 4.00106 10.7316 4L136.267 4C137.521 4.00159 138.723 4.50005 139.61 5.38616C140.497 6.27228 140.996 7.47375 140.999 8.7273V39.2777C141.001 41.8824 138.875 44 136.268 44Z" fill="white"/>
<path d="M140.105 39.2781C140.105 39.7815 140.005 40.28 139.812 40.7451C139.62 41.2102 139.337 41.6327 138.981 41.9885C138.624 42.3443 138.202 42.6264 137.736 42.8187C137.271 43.011 136.772 43.1097 136.268 43.1091H10.7317C9.71422 43.1102 8.73797 42.7072 8.01766 41.9888C7.29735 41.2703 6.89195 40.2953 6.89062 39.2781V8.72668C6.89195 7.70901 7.29719 6.73346 8.01736 6.01423C8.73752 5.295 9.71376 4.89089 10.7317 4.89063H136.267C136.771 4.89062 137.27 4.98985 137.736 5.18265C138.201 5.37544 138.624 5.65802 138.98 6.01424C139.337 6.37046 139.619 6.79336 139.812 7.25876C140.005 7.72417 140.104 8.22297 140.104 8.72668L140.105 39.2781Z" fill="white"/>
<path d="M36.1443 23.7895C36.1153 20.5656 38.7847 18.9972 38.9068 18.9241C37.395 16.7205 35.0517 16.4195 34.2283 16.3954C32.2602 16.1884 30.3512 17.5728 29.3486 17.5728C28.3261 17.5728 26.7822 16.4155 25.1183 16.4495C22.9772 16.4825 20.9741 17.7218 19.8755 19.6463C17.6083 23.5704 19.2992 29.337 21.4714 32.5089C22.558 34.0633 23.8276 35.7968 25.4895 35.7358C27.1154 35.6697 27.7227 34.7005 29.6848 34.7005C31.6289 34.7005 32.1992 35.7358 33.8941 35.6968C35.639 35.6698 36.7376 34.1363 37.7862 32.5689C39.0419 30.7894 39.5461 29.0349 39.5661 28.9449C39.5261 28.9309 36.1783 27.6525 36.1443 23.7895ZM32.9426 14.3089C33.817 13.2156 34.4154 11.7282 34.2493 10.2188C32.9836 10.2748 31.4007 11.094 30.4892 12.1633C29.6828 13.1055 28.9624 14.65 29.1485 16.1024C30.5703 16.2084 32.0301 15.3852 32.9426 14.3089Z" fill="black"/>
<path d="M136.269 4H69.0273L95.3646 44H136.269C137.522 43.9989 138.724 43.5009 139.611 42.6151C140.498 41.7293 140.998 40.5281 141 39.2747V8.7273C140.998 7.47367 140.499 6.27204 139.612 5.38587C138.725 4.4997 137.523 4.00132 136.269 4Z" fill="white"/>
<path d="M59.6942 35.5126H57.422L56.1773 31.6025H51.851L50.6653 35.5126H48.4531L52.7404 22.201H55.3879L59.6942 35.5126ZM55.8021 29.9621L54.6765 26.4861C54.5574 26.131 54.3333 25.2948 54.0051 23.9784H53.9651C53.833 24.5446 53.6219 25.3808 53.3328 26.4861L52.2262 29.9621H55.8021ZM70.6981 30.5953C70.6981 32.2277 70.2549 33.5181 69.3674 34.4653C68.573 35.3086 67.5855 35.7297 66.4078 35.7297C65.1361 35.7297 64.2216 35.2766 63.6663 34.3683V39.4047H61.5332V29.0688C61.5332 28.0436 61.5062 26.9923 61.4541 25.914H63.3302L63.4492 27.4354H63.4892C64.2006 26.2891 65.2802 25.7159 66.729 25.7159C67.8616 25.7159 68.8071 26.163 69.5635 27.0583C70.3189 27.9555 70.6981 29.1339 70.6981 30.5953ZM68.525 30.6733C68.525 29.739 68.3148 28.9688 67.8926 28.3617C67.4314 27.7305 66.812 27.4144 66.0356 27.4144C65.5093 27.4144 65.0311 27.5904 64.6038 27.9375C64.1756 28.2876 63.8955 28.7448 63.7644 29.3109C63.7059 29.5226 63.6726 29.7406 63.6653 29.9601V31.5615C63.6653 32.2587 63.8795 32.8479 64.3077 33.33C64.7359 33.8102 65.2922 34.0512 65.9766 34.0512C66.78 34.0512 67.4054 33.7401 67.8526 33.123C68.3008 32.5038 68.525 31.6876 68.525 30.6733ZM81.7411 30.5953C81.7411 32.2277 81.2979 33.5181 80.4104 34.4653C79.615 35.3086 78.6284 35.7297 77.4498 35.7297C76.1781 35.7297 75.2636 35.2766 74.7083 34.3683V39.4047H72.5751V29.0688C72.5751 28.0436 72.5481 26.9923 72.4961 25.914H74.3721L74.4912 27.4354H74.5312C75.2416 26.2891 76.3212 25.7159 77.771 25.7159C78.9026 25.7159 79.8481 26.163 80.6065 27.0583C81.3609 27.9555 81.7411 29.1339 81.7411 30.5953ZM79.5669 30.6733C79.5669 29.739 79.3558 28.9688 78.9336 28.3617C78.4723 27.7305 77.855 27.4144 77.0786 27.4144C76.5523 27.4144 76.074 27.5904 75.6448 27.9375C75.2166 28.2876 74.9374 28.7448 74.8063 29.3109C74.7413 29.575 74.7063 29.79 74.7063 29.9601V31.5615C74.7063 32.2587 74.9214 32.8479 75.3476 33.33C75.7759 33.8092 76.3322 34.0512 77.0185 34.0512C77.823 34.0512 78.4483 33.7401 78.8946 33.123C79.3428 32.5038 79.5669 31.6876 79.5669 30.6733ZM94.0878 31.7786C94.0878 32.9119 93.6915 33.8332 92.9041 34.5444C92.0377 35.3206 90.828 35.7097 89.2772 35.7097C87.8444 35.7097 86.6958 35.4336 85.8293 34.8804L86.3226 33.103C87.2581 33.6571 88.2856 33.9332 89.4042 33.9332C90.2087 33.9332 90.834 33.7511 91.2802 33.39C91.7275 33.0279 91.9536 32.5438 91.9536 31.9396C91.9536 31.3985 91.7665 30.9454 91.3993 30.5763C91.0301 30.2082 90.4198 29.8651 89.5623 29.55C87.2311 28.6807 86.0644 27.4094 86.0644 25.7369C86.0644 24.6446 86.4767 23.7504 87.2991 23.0512C88.1215 22.353 89.2121 22.0039 90.5689 22.0039C91.7805 22.0039 92.7901 22.215 93.5915 22.6361L93.0562 24.3746C92.3018 23.9664 91.4503 23.7624 90.4978 23.7624C89.7454 23.7624 89.1551 23.9474 88.7329 24.3155C88.3777 24.6446 88.1976 25.0457 88.1976 25.5219C88.1976 26.047 88.4027 26.4831 88.8109 26.8252C89.1651 27.1403 89.8114 27.4834 90.746 27.8515C91.8926 28.3136 92.735 28.8518 93.2743 29.47C93.8176 30.0881 94.0878 30.8593 94.0878 31.7786ZM101.159 27.5144H98.8073V32.1747C98.8073 33.36 99.2215 33.9512 100.052 33.9512C100.433 33.9512 100.749 33.9192 100.999 33.8522L101.059 35.4716C100.638 35.6287 100.085 35.7077 99.3996 35.7077C98.5572 35.7077 97.8988 35.4506 97.4236 34.9365C96.9503 34.4223 96.7122 33.5611 96.7122 32.3488V27.5104H95.3114V25.91H96.7122V24.1525L98.8073 23.5203V25.91H101.159V27.5144ZM111.746 30.6343C111.746 32.1097 111.324 33.321 110.482 34.2683C109.6 35.2435 108.428 35.7297 106.966 35.7297C105.555 35.7297 104.433 35.2626 103.597 34.3293C102.76 33.394 102.342 32.2157 102.342 30.7943C102.342 29.3069 102.774 28.0886 103.636 27.1413C104.499 26.1931 105.662 25.7189 107.124 25.7189C108.533 25.7189 109.664 26.1871 110.521 27.1213C111.339 28.0276 111.746 29.1979 111.746 30.6343ZM109.535 30.6833C109.535 29.8041 109.345 29.0498 108.964 28.4187C108.517 27.6565 107.876 27.2754 107.047 27.2754C106.192 27.2754 105.537 27.6565 105.091 28.4187C104.708 29.0498 104.518 29.8171 104.518 30.7233C104.518 31.6035 104.708 32.3598 105.091 32.9889C105.552 33.7511 106.195 34.1322 107.029 34.1322C107.844 34.1322 108.484 33.7431 108.946 32.9699C109.338 32.3237 109.535 31.5645 109.535 30.6833ZM118.683 27.7895C118.461 27.7495 118.236 27.7297 118.011 27.7305C117.26 27.7305 116.68 28.0126 116.272 28.5807C115.918 29.0809 115.739 29.713 115.739 30.4762V35.5126H113.606V28.9368C113.608 27.9292 113.588 26.9217 113.544 25.915H115.402L115.48 27.7515H115.539C115.765 27.1203 116.12 26.6112 116.606 26.2301C117.051 25.8971 117.592 25.7167 118.148 25.7159C118.345 25.7159 118.523 25.7299 118.681 25.7549L118.683 27.7895ZM128.223 30.2592C128.229 30.5834 128.202 30.9073 128.145 31.2264H121.746C121.77 32.1747 122.08 32.9009 122.674 33.401C123.213 33.8472 123.911 34.0712 124.767 34.0712C125.715 34.0712 126.579 33.9212 127.357 33.6181L127.691 35.0975C126.782 35.4936 125.71 35.6907 124.472 35.6907C122.983 35.6907 121.815 35.2526 120.964 34.3783C120.116 33.5031 119.691 32.3267 119.691 30.8533C119.691 29.4069 120.086 28.2016 120.877 27.2403C121.706 26.2141 122.825 25.7009 124.234 25.7009C125.618 25.7009 126.665 26.2141 127.377 27.2403C127.94 28.0536 128.223 29.0618 128.223 30.2592ZM126.189 29.706C126.204 29.0728 126.064 28.5277 125.775 28.0666C125.406 27.4724 124.837 27.1763 124.076 27.1763C123.379 27.1763 122.81 27.4654 122.378 28.0456C122.023 28.5067 121.812 29.0608 121.747 29.704L126.189 29.706Z" fill="black"/>
<path d="M51.235 17.4946C50.6417 17.4946 50.1284 17.4656 49.7012 17.4166V10.9808C50.2987 10.8885 50.9025 10.843 51.5071 10.8448C53.9535 10.8448 55.0801 12.0481 55.0801 14.0096C55.0801 16.2723 53.7494 17.4946 51.235 17.4946ZM51.5932 11.67C51.263 11.67 50.9819 11.69 50.7487 11.738V16.6304C50.8748 16.6504 51.1169 16.6594 51.4571 16.6594C53.06 16.6594 53.9725 15.7471 53.9725 14.0386C53.9725 12.5152 53.147 11.67 51.5932 11.67ZM58.591 17.5436C57.2122 17.5436 56.3187 16.5143 56.3187 15.1169C56.3187 13.6605 57.2312 12.6223 58.669 12.6223C60.0277 12.6223 60.9412 13.6025 60.9412 15.0399C60.9412 16.5143 59.9997 17.5436 58.591 17.5436ZM58.631 13.3885C57.8736 13.3885 57.3883 14.0967 57.3883 15.0869C57.3883 16.0582 57.8836 16.7664 58.621 16.7664C59.3584 16.7664 59.8537 16.0092 59.8537 15.0669C59.8537 14.1067 59.3684 13.3885 58.631 13.3885ZM68.8035 12.7193L67.3277 17.4366H66.3662L65.7548 15.388C65.6028 14.8869 65.4763 14.3785 65.3756 13.8646H65.3556C65.2786 14.3787 65.1325 14.8939 64.9774 15.388L64.3271 17.4366H63.3555L61.9668 12.7193H63.0444L63.5787 14.9619C63.7047 15.496 63.8108 16.0002 63.8988 16.4763H63.9188C63.9959 16.0792 64.122 15.5831 64.3071 14.9719L64.9774 12.7203H65.8319L66.4732 14.9239C66.6283 15.458 66.7544 15.9822 66.8524 16.4773H66.8804C66.9485 15.9922 67.0555 15.477 67.2006 14.9239L67.7739 12.7203L68.8035 12.7193ZM74.2364 17.4366H73.1878V14.7278C73.1878 13.8936 72.8677 13.4755 72.2363 13.4755C71.615 13.4755 71.1878 14.0096 71.1878 14.6308V17.4366H70.1392V14.0677C70.1392 13.6505 70.1292 13.2034 70.1002 12.7183H71.0227L71.0717 13.4465H71.1007C71.3829 12.9423 71.9552 12.6223 72.5965 12.6223C73.5871 12.6223 74.2374 13.3795 74.2374 14.6118L74.2364 17.4366ZM77.128 17.4366H76.0784V10.5547H77.128V17.4366ZM80.951 17.5436C79.5733 17.5436 78.6788 16.5143 78.6788 15.1169C78.6788 13.6605 79.5913 12.6223 81.0281 12.6223C82.3878 12.6223 83.3003 13.6025 83.3003 15.0399C83.3013 16.5143 82.3588 17.5436 80.951 17.5436ZM80.9901 13.3885C80.2326 13.3885 79.7474 14.0967 79.7474 15.0869C79.7474 16.0582 80.2437 16.7664 80.9791 16.7664C81.7175 16.7664 82.2117 16.0092 82.2117 15.0669C82.2127 14.1067 81.7285 13.3885 80.9901 13.3885ZM87.4345 17.4366L87.3585 16.8934H87.3305C87.0103 17.3306 86.5431 17.5436 85.9507 17.5436C85.1053 17.5436 84.505 16.9514 84.505 16.1552C84.505 14.9909 85.5145 14.3887 87.2624 14.3887V14.3017C87.2624 13.6805 86.9333 13.3695 86.2829 13.3695C85.8177 13.3695 85.4094 13.4865 85.0503 13.7196L84.8371 13.0304C85.2734 12.7583 85.8177 12.6223 86.457 12.6223C87.6897 12.6223 88.312 13.2724 88.312 14.5738V16.3113C88.312 16.7874 88.333 17.1565 88.38 17.4376L87.4345 17.4366ZM87.2905 15.0869C86.1258 15.0869 85.5415 15.369 85.5415 16.0382C85.5415 16.5333 85.8427 16.7754 86.2609 16.7754C86.7942 16.7754 87.2905 16.3683 87.2905 15.8151V15.0869ZM93.4038 17.4366L93.3547 16.6794H93.3257C93.0246 17.2515 92.5183 17.5436 91.8109 17.5436C90.6733 17.5436 89.8308 16.5433 89.8308 15.1359C89.8308 13.6605 90.7043 12.6213 91.8969 12.6213C92.5283 12.6213 92.9755 12.8343 93.2277 13.2624H93.2487V10.5547H94.2982V16.1652C94.2982 16.6214 94.3092 17.0485 94.3373 17.4366H93.4038ZM93.2487 14.6608C93.2487 14.0006 92.8114 13.4375 92.1441 13.4375C91.3667 13.4375 90.8914 14.1267 90.8914 15.0969C90.8914 16.0482 91.3847 16.6994 92.1231 16.6994C92.7824 16.6994 93.2487 16.1262 93.2487 15.447V14.6608ZM100.953 17.5436C99.5751 17.5436 98.6816 16.5143 98.6816 15.1169C98.6816 13.6605 99.5941 12.6223 101.031 12.6223C102.391 12.6223 103.303 13.6025 103.303 15.0399C103.304 16.5143 102.363 17.5436 100.953 17.5436ZM100.992 13.3885C100.235 13.3885 99.7502 14.0967 99.7502 15.0869C99.7502 16.0582 100.245 16.7664 100.982 16.7664C101.72 16.7664 102.215 16.0092 102.215 15.0669C102.217 14.1067 101.731 13.3885 100.992 13.3885ZM108.942 17.4366H107.893V14.7278C107.893 13.8936 107.572 13.4755 106.941 13.4755C106.32 13.4755 105.893 14.0096 105.893 14.6308V17.4366H104.844V14.0677C104.844 13.6505 104.834 13.2034 104.805 12.7183H105.727L105.776 13.4465H105.805C106.087 12.9423 106.66 12.6213 107.3 12.6213C108.291 12.6213 108.942 13.3785 108.942 14.6108V17.4366ZM115.997 13.5055H114.843V15.7961C114.843 16.3793 115.045 16.6704 115.454 16.6704C115.639 16.6704 115.794 16.6504 115.919 16.6214L115.948 17.4176C115.745 17.4956 115.473 17.5346 115.134 17.5346C114.308 17.5346 113.814 17.0785 113.814 15.8842V13.5055H113.125V12.7193H113.814V11.855L114.843 11.544V12.7183H115.997V13.5055ZM121.548 17.4366H120.5V14.7478C120.5 13.9036 120.181 13.4765 119.549 13.4765C119.006 13.4765 118.499 13.8456 118.499 14.5928V17.4366H117.452V10.5547H118.499V13.3885H118.52C118.85 12.8743 119.329 12.6213 119.939 12.6213C120.938 12.6213 121.548 13.3975 121.548 14.6308V17.4366ZM127.235 15.33H124.088C124.108 16.2232 124.7 16.7274 125.575 16.7274C126.04 16.7274 126.469 16.6494 126.847 16.5043L127.01 17.2325C126.564 17.4266 126.038 17.5236 125.427 17.5236C123.951 17.5236 123.078 16.5913 123.078 15.1459C123.078 13.6996 123.972 12.6123 125.309 12.6123C126.515 12.6123 127.271 13.5055 127.271 14.8549C127.278 15.0141 127.266 15.1736 127.235 15.33ZM126.273 14.5828C126.273 13.8546 125.906 13.3405 125.236 13.3405C124.634 13.3405 124.157 13.8646 124.089 14.5828H126.273Z" fill="black"/>
</g>
<defs>
<filter id="filter0_d_2105_223" x="0" y="0" width="147" height="52" filterUnits="userSpaceOnUse" color-interpolation-filters="sRGB">
<feFlood flood-opacity="0" result="BackgroundImageFix"/>
<feColorMatrix in="SourceAlpha" type="matrix" values="0 0 0 0 0 0 0 0 0 0 0 0 0 0 0 0 0 0 127 0" result="hardAlpha"/>
<feOffset dy="2"/>
<feGaussianBlur stdDeviation="3"/>
<feComposite in2="hardAlpha" operator="out"/>
<feColorMatrix type="matrix" values="0 0 0 0 0 0 0 0 0 0 0 0 0 0 0 0 0 0 0.25 0"/>
<feBlend mode="normal" in2="BackgroundImageFix" result="effect1_dropShadow_2105_223"/>
<feBlend mode="normal" in="SourceGraphic" in2="effect1_dropShadow_2105_223" result="shape"/>
</filter>
</defs>
</svg>
