<svg width="147" height="53" viewBox="0 0 147 53" fill="none" xmlns="http://www.w3.org/2000/svg">
<g filter="url(#filter0_d_2105_212)">
<path d="M136 44.4814H11C8.2 44.4814 6 42.2814 6 39.4814V9.48145C6 6.68145 8.2 4.48145 11 4.48145H136C138.8 4.48145 141 6.68145 141 9.48145V39.4814C141 42.2814 138.8 44.4814 136 44.4814Z" fill="white"/>
<path d="M136 5.28145C138.3 5.28145 140.2 7.18145 140.2 9.48145V39.4814C140.2 41.7814 138.3 43.6814 136 43.6814H11C8.7 43.6814 6.8 41.7814 6.8 39.4814V9.48145C6.8 7.18145 8.7 5.28145 11 5.28145H136ZM136 4.48145H11C8.2 4.48145 6 6.78145 6 9.48145V39.4814C6 42.2814 8.2 44.4814 11 44.4814H136C138.8 44.4814 141 42.2814 141 39.4814V9.48145C141 6.78145 138.8 4.48145 136 4.48145Z" fill="white"/>
<path d="M53.4004 14.6818C53.4004 15.4818 53.2004 16.1818 52.7004 16.6818C52.1004 17.2818 51.4004 17.5818 50.5004 17.5818C49.6004 17.5818 48.9004 17.2818 48.3004 16.6818C47.7004 16.0818 47.4004 15.3818 47.4004 14.4818C47.4004 13.5818 47.7004 12.8818 48.3004 12.2818C48.9004 11.6818 49.6004 11.3818 50.5004 11.3818C50.9004 11.3818 51.3004 11.4818 51.7004 11.6818C52.1004 11.8818 52.4004 12.0818 52.6004 12.3818L52.1004 12.8818C51.7004 12.3818 51.2004 12.1818 50.5004 12.1818C49.9004 12.1818 49.3004 12.3818 48.9004 12.8818C48.4004 13.2818 48.2004 13.8818 48.2004 14.5818C48.2004 15.2818 48.4004 15.8818 48.9004 16.2818C49.4004 16.6818 49.9004 16.9818 50.5004 16.9818C51.2004 16.9818 51.7004 16.7818 52.2004 16.2818C52.5004 15.9818 52.7004 15.5818 52.7004 15.0818H50.5004V14.2818H53.4004V14.6818ZM58.0004 12.1818H55.3004V14.0818H57.8004V14.7818H55.3004V16.6818H58.0004V17.4818H54.5004V11.4818H58.0004V12.1818ZM61.3004 17.4818H60.5004V12.1818H58.8004V11.4818H63.0004V12.1818H61.3004V17.4818ZM65.9004 17.4818V11.4818H66.7004V17.4818H65.9004ZM70.1004 17.4818H69.3004V12.1818H67.6004V11.4818H71.7004V12.1818H70.0004V17.4818H70.1004ZM79.6004 16.6818C79.0004 17.2818 78.3004 17.5818 77.4004 17.5818C76.5004 17.5818 75.8004 17.2818 75.2004 16.6818C74.6004 16.0818 74.3004 15.3818 74.3004 14.4818C74.3004 13.5818 74.6004 12.8818 75.2004 12.2818C75.8004 11.6818 76.5004 11.3818 77.4004 11.3818C78.3004 11.3818 79.0004 11.6818 79.6004 12.2818C80.2004 12.8818 80.5004 13.5818 80.5004 14.4818C80.5004 15.3818 80.2004 16.0818 79.6004 16.6818ZM75.8004 16.1818C76.2004 16.5818 76.8004 16.8818 77.4004 16.8818C78.0004 16.8818 78.6004 16.6818 79.0004 16.1818C79.4004 15.7818 79.7004 15.1818 79.7004 14.4818C79.7004 13.7818 79.5004 13.1818 79.0004 12.7818C78.6004 12.3818 78.0004 12.0818 77.4004 12.0818C76.8004 12.0818 76.2004 12.2818 75.8004 12.7818C75.4004 13.1818 75.1004 13.7818 75.1004 14.4818C75.1004 15.1818 75.3004 15.7818 75.8004 16.1818ZM81.6004 17.4818V11.4818H82.5004L85.4004 16.1818V11.4818H86.2004V17.4818H85.4004L82.3004 12.5818V17.4818H81.6004Z" fill="black" stroke="black" stroke-width="0.5" stroke-miterlimit="10"/>
<path d="M74.0996 26.2811C71.6996 26.2811 69.7996 28.0811 69.7996 30.5811C69.7996 32.9811 71.6996 34.8811 74.0996 34.8811C76.4996 34.8811 78.3996 33.0811 78.3996 30.5811C78.3996 27.9811 76.4996 26.2811 74.0996 26.2811ZM74.0996 33.0811C72.7996 33.0811 71.6996 31.9811 71.6996 30.4811C71.6996 28.9811 72.7996 27.8811 74.0996 27.8811C75.3996 27.8811 76.4996 28.8811 76.4996 30.4811C76.4996 31.9811 75.3996 33.0811 74.0996 33.0811ZM64.7996 26.2811C62.3996 26.2811 60.4996 28.0811 60.4996 30.5811C60.4996 32.9811 62.3996 34.8811 64.7996 34.8811C67.1996 34.8811 69.0996 33.0811 69.0996 30.5811C69.0996 27.9811 67.1996 26.2811 64.7996 26.2811ZM64.7996 33.0811C63.4996 33.0811 62.3996 31.9811 62.3996 30.4811C62.3996 28.9811 63.4996 27.8811 64.7996 27.8811C66.0996 27.8811 67.1996 28.8811 67.1996 30.4811C67.1996 31.9811 66.0996 33.0811 64.7996 33.0811ZM53.6996 27.5811V29.3811H57.9996C57.8996 30.3811 57.4996 31.1811 56.9996 31.6811C56.3996 32.2811 55.3996 32.9811 53.6996 32.9811C50.9996 32.9811 48.9996 30.8811 48.9996 28.1811C48.9996 25.4811 51.0996 23.3811 53.6996 23.3811C55.0996 23.3811 56.1996 23.9811 56.9996 24.6811L58.2996 23.3811C57.1996 22.3811 55.7996 21.5811 53.7996 21.5811C50.1996 21.5811 47.0996 24.5811 47.0996 28.1811C47.0996 31.7811 50.1996 34.7811 53.7996 34.7811C55.7996 34.7811 57.1996 34.1811 58.3996 32.8811C59.5996 31.6811 59.9996 29.9811 59.9996 28.6811C59.9996 28.2811 59.9996 27.8811 59.8996 27.5811H53.6996ZM99.0996 28.9811C98.6996 27.9811 97.6996 26.2811 95.4996 26.2811C93.2996 26.2811 91.4996 27.9811 91.4996 30.5811C91.4996 32.9811 93.2996 34.8811 95.6996 34.8811C97.5996 34.8811 98.7996 33.6811 99.1996 32.9811L97.7996 31.9811C97.2996 32.6811 96.6996 33.1811 95.6996 33.1811C94.6996 33.1811 94.0996 32.7811 93.5996 31.8811L99.2996 29.4811L99.0996 28.9811ZM93.2996 30.3811C93.2996 28.7811 94.5996 27.8811 95.4996 27.8811C96.1996 27.8811 96.8996 28.2811 97.0996 28.7811L93.2996 30.3811ZM88.5996 34.4811H90.4996V21.9811H88.5996V34.4811ZM85.5996 27.1811C85.0996 26.6811 84.2996 26.1811 83.2996 26.1811C81.1996 26.1811 79.1996 28.0811 79.1996 30.4811C79.1996 32.8811 81.0996 34.6811 83.2996 34.6811C84.2996 34.6811 85.0996 34.1811 85.4996 33.6811H85.5996V34.2811C85.5996 35.8811 84.6996 36.7811 83.2996 36.7811C82.1996 36.7811 81.3996 35.9811 81.1996 35.2811L79.5996 35.9811C80.0996 37.0811 81.2996 38.4811 83.3996 38.4811C85.5996 38.4811 87.3996 37.1811 87.3996 34.0811V26.4811H85.5996V27.1811ZM83.3996 33.0811C82.0996 33.0811 80.9996 31.9811 80.9996 30.4811C80.9996 28.9811 82.0996 27.8811 83.3996 27.8811C84.6996 27.8811 85.6996 28.9811 85.6996 30.4811C85.6996 31.9811 84.6996 33.0811 83.3996 33.0811ZM107.8 21.9811H103.3V34.4811H105.2V29.7811H107.8C109.9 29.7811 111.9 28.2811 111.9 25.8811C111.9 23.4811 109.9 21.9811 107.8 21.9811ZM107.9 27.9811H105.2V23.6811H107.9C109.3 23.6811 110.1 24.8811 110.1 25.7811C110 26.8811 109.2 27.9811 107.9 27.9811ZM119.4 26.1811C118 26.1811 116.6 26.7811 116.1 28.0811L117.8 28.7811C118.2 28.0811 118.8 27.8811 119.5 27.8811C120.5 27.8811 121.4 28.4811 121.5 29.4811V29.5811C121.2 29.3811 120.4 29.0811 119.6 29.0811C117.8 29.0811 116 30.0811 116 31.8811C116 33.5811 117.5 34.6811 119.1 34.6811C120.4 34.6811 121 34.0811 121.5 33.4811H121.6V34.4811H123.4V29.6811C123.2 27.4811 121.5 26.1811 119.4 26.1811ZM119.2 33.0811C118.6 33.0811 117.7 32.7811 117.7 31.9811C117.7 30.9811 118.8 30.6811 119.7 30.6811C120.5 30.6811 120.9 30.8811 121.4 31.0811C121.2 32.2811 120.2 33.0811 119.2 33.0811ZM129.7 26.4811L127.6 31.8811H127.5L125.3 26.4811H123.3L126.6 34.0811L124.7 38.2811H126.6L131.7 26.4811H129.7ZM112.9 34.4811H114.8V21.9811H112.9V34.4811Z" fill="black"/>
<path d="M16.4 11.9805C16.1 12.2805 16 12.7805 16 13.3805V35.4805C16 36.0805 16.2 36.5805 16.5 36.8805L16.6 36.9805L29 24.5805V24.3805L16.4 11.9805Z" fill="url(#paint0_linear_2105_212)"/>
<path d="M33.0004 28.7812L28.9004 24.6813V24.3812L33.0004 20.2812L33.1004 20.3812L38.0004 23.1813C39.4004 23.9813 39.4004 25.2812 38.0004 26.0813L33.0004 28.7812Z" fill="url(#paint1_linear_2105_212)"/>
<path d="M33.1004 28.6805L28.9004 24.4805L16.4004 36.9805C16.9004 37.4805 17.6004 37.4805 18.5004 37.0805L33.1004 28.6805Z" fill="url(#paint2_linear_2105_212)"/>
<path d="M33.1004 20.2811L18.5004 11.9811C17.6004 11.4811 16.9004 11.5811 16.4004 12.0811L28.9004 24.4811L33.1004 20.2811Z" fill="url(#paint3_linear_2105_212)"/>
<path opacity="0.2" d="M33.0004 28.5811L18.5004 36.7811C17.7004 37.2811 17.0004 37.1811 16.5004 36.7811L16.4004 36.8811L16.5004 36.9811C17.0004 37.3811 17.7004 37.4811 18.5004 36.9811L33.0004 28.5811Z" fill="white"/>
<path opacity="0.12" d="M16.4 36.7805C16.1 36.4805 16 35.9805 16 35.3805V35.4805C16 36.0805 16.2 36.5805 16.5 36.8805V36.7805H16.4ZM38 25.7805L33 28.5805L33.1 28.6805L38 25.8805C38.7 25.4805 39 24.9805 39 24.4805C39 24.9805 38.6 25.3805 38 25.7805Z" fill="white"/>
<path opacity="0.25" d="M18.5 12.0807L38 23.1807C38.6 23.5807 39 23.9807 39 24.4807C39 23.9807 38.7 23.4807 38 23.0807L18.5 11.9807C17.1 11.1807 16 11.7807 16 13.3807V13.4807C16 11.9807 17.1 11.2807 18.5 12.0807Z" fill="black"/>
</g>
<defs>
<filter id="filter0_d_2105_212" x="0" y="0.481445" width="147" height="52" filterUnits="userSpaceOnUse" color-interpolation-filters="sRGB">
<feFlood flood-opacity="0" result="BackgroundImageFix"/>
<feColorMatrix in="SourceAlpha" type="matrix" values="0 0 0 0 0 0 0 0 0 0 0 0 0 0 0 0 0 0 127 0" result="hardAlpha"/>
<feOffset dy="2"/>
<feGaussianBlur stdDeviation="3"/>
<feComposite in2="hardAlpha" operator="out"/>
<feColorMatrix type="matrix" values="0 0 0 0 0 0 0 0 0 0 0 0 0 0 0 0 0 0 0.25 0"/>
<feBlend mode="normal" in2="BackgroundImageFix" result="effect1_dropShadow_2105_212"/>
<feBlend mode="normal" in="SourceGraphic" in2="effect1_dropShadow_2105_212" result="shape"/>
</filter>
<linearGradient id="paint0_linear_2105_212" x1="27.8" y1="13.1905" x2="11.017" y2="29.9725" gradientUnits="userSpaceOnUse">
<stop stop-color="#00A0FF"/>
<stop offset="0.007" stop-color="#00A1FF"/>
<stop offset="0.26" stop-color="#00BEFF"/>
<stop offset="0.512" stop-color="#00D2FF"/>
<stop offset="0.76" stop-color="#00DFFF"/>
<stop offset="1" stop-color="#00E3FF"/>
</linearGradient>
<linearGradient id="paint1_linear_2105_212" x1="39.8344" y1="24.4822" x2="15.6374" y2="24.4822" gradientUnits="userSpaceOnUse">
<stop stop-color="#FFE000"/>
<stop offset="0.409" stop-color="#FFBD00"/>
<stop offset="0.775" stop-color="#FFA500"/>
<stop offset="1" stop-color="#FF9C00"/>
</linearGradient>
<linearGradient id="paint2_linear_2105_212" x1="30.8274" y1="26.7765" x2="8.06939" y2="49.5345" gradientUnits="userSpaceOnUse">
<stop stop-color="#FF3A44"/>
<stop offset="1" stop-color="#C31162"/>
</linearGradient>
<linearGradient id="paint3_linear_2105_212" x1="13.2974" y1="4.65707" x2="23.4604" y2="14.8201" gradientUnits="userSpaceOnUse">
<stop stop-color="#32A071"/>
<stop offset="0.069" stop-color="#2DA771"/>
<stop offset="0.476" stop-color="#15CF74"/>
<stop offset="0.801" stop-color="#06E775"/>
<stop offset="1" stop-color="#00F076"/>
</linearGradient>
</defs>
</svg>
