<svg width="144" height="61" viewBox="0 0 144 61" fill="none" xmlns="http://www.w3.org/2000/svg">
<path fill-rule="evenodd" clip-rule="evenodd" d="M21.4572 16.9219C21.4556 16.9187 21.3773 16.1721 20.4884 16.3964C20.1735 16.4759 19.885 16.8231 19.7124 17.0002C18.9831 17.7474 15.636 21.2022 15.167 21.2866C14.0567 21.4864 14.003 20.2942 14.4352 19.6915L16.7268 17.4775C18.2594 15.9571 19.6734 14.159 22.4318 13.1498C24.1875 12.5076 25.26 12.7573 26.899 11.7347C28.1504 10.9538 28.6682 10.1139 29.9438 8.89717C30.4805 8.38513 30.8588 7.92159 31.3576 7.37007C31.8466 6.82964 32.4017 6.50967 32.4076 5.49689C29.2515 5.18454 15.4352 5.37117 11.2453 5.37117C9.73613 5.37117 9.94158 5.95738 9.94049 7.32461L9.94169 53.8587C9.94169 55.4795 9.82651 55.8784 11.5806 55.9095L27.8522 55.9102C32.2926 55.8904 33.2329 56.3037 31.3625 53.8092C29.8144 51.7448 26.7221 47.0993 25.0822 45.7301C23.3867 44.3148 18.8603 44.5313 15.4049 38.1095C14.2391 35.9431 12.799 30.4506 16.7705 30.5585C19.6759 30.6376 22.6063 33.7679 23.6423 35.232C27.2559 40.3387 25.6117 40.4692 26.642 43.6545C27.3702 45.9051 32.272 51.1911 34.0168 53.407C35.5896 55.4044 35.7946 55.906 37.1934 55.906L45.4968 55.9052C46.4619 55.9052 47.6285 55.9778 47.0437 54.7566L33.5701 34.4761C32.7376 33.2257 31.9955 32.1712 31.1402 30.8497C28.4634 26.7139 28.364 27.3394 30.0124 25.5761L32.2332 22.952C32.585 22.4867 32.9597 22.0953 33.3369 21.6305C34.0845 20.7092 34.8221 19.8721 35.5584 19.0032L43.3564 9.85165C44.3682 8.69433 46.4977 6.61854 46.3243 5.63393C45.2816 5.07806 41.8986 5.37117 40.4801 5.37117C36.4227 5.37117 37.0698 4.97115 35.4627 6.45442C33.9376 7.86199 30.4982 10.8923 29.2455 12.348C26.0835 16.0232 29.3724 15.8193 23.9243 22.2555C23.4524 22.8131 22.9951 23.234 22.4565 23.728C20.9905 25.0728 19.8831 26.7769 19.0276 25.6616C18.3942 24.8357 20.5083 23.1286 21.3645 22.2895C22.8072 20.8751 23.9872 20.0691 23.7293 18.8757C22.7026 18.4508 22.4478 18.7719 21.7838 19.4198L18.7135 22.5771C18.1598 23.1259 17.7875 23.755 16.732 23.4579C16.3308 22.4085 17.1457 22.0707 17.6745 21.5393C18.6512 20.5582 21.8401 17.7822 21.4571 16.9218L21.4572 16.9219Z" fill="#FD0000"/>
<path fill-rule="evenodd" clip-rule="evenodd" d="M8.65776 5.44922C4.38914 6.66353 2.2755 16.3626 1.53963 20.2871C0.857814 23.9223 -0.487438 37.4633 0.181545 40.8697L4.33607 40.8619C4.26984 42.7798 3.02497 54.6688 3.45892 55.348C3.54799 55.4952 3.30481 55.8187 4.49214 55.885C5.64304 55.9491 7.60551 56.0345 8.49038 55.6357C9.04081 54.1118 8.71736 33.9772 8.71736 30.5053C8.71736 28.3658 8.84809 7.00307 8.65765 5.44922H8.65776Z" fill="#FD0000"/>
<path fill-rule="evenodd" clip-rule="evenodd" d="M48.9533 60.6439L51.1139 60.6349L51.1089 0L48.9546 0.0067444L48.9531 60.0862L48.9533 60.6439Z" fill="#FD0000"/>
<path fill-rule="evenodd" clip-rule="evenodd" d="M63.1351 31.37C63.4691 30.7092 67.3754 25.9768 68.2014 24.6238L65.1784 24.6152C64.8149 25.3289 61.3718 30.1659 60.9226 30.5336L60.924 24.6164L58.3427 24.6763L58.3398 38.4451L60.9244 38.4623L60.9249 32.552C61.3716 32.9197 64.8149 37.7568 65.1784 38.4668L68.2112 38.4642C67.0038 36.4106 63.9833 33.0831 63.135 31.3699L63.1351 31.37Z" fill="#FD0000"/>
<path fill-rule="evenodd" clip-rule="evenodd" d="M110.812 32.2301C111.56 29.6127 115.644 29.5255 116.452 32.2338L110.812 32.2301ZM118.554 35.5153C117.758 35.5222 116.525 35.3641 115.82 35.6164C115.182 35.8446 115.078 36.2517 113.979 36.3595C112.348 36.5199 111.079 35.6472 110.872 34.3416L118.833 34.3328C119.705 26.7204 110.143 25.4979 108.39 31.8167C106.498 38.6413 116.361 41.5436 118.554 35.5153Z" fill="#FD0000"/>
<path fill-rule="evenodd" clip-rule="evenodd" d="M99.8471 38.4636C99.8209 35.848 99.0453 30.0601 102.054 30.1663C105.026 30.2716 104.057 35.8568 104.119 38.4627L106.562 38.4636C106.551 36.0894 106.977 31.447 105.955 29.7252C104.664 27.5511 101.927 27.2291 99.851 28.7324L99.8471 24.624L97.3926 24.623L97.3944 38.4621L99.8471 38.4637V38.4636Z" fill="#FD0000"/>
<path fill-rule="evenodd" clip-rule="evenodd" d="M123.2 38.4625C123.186 36.6752 123.2 34.881 123.198 33.0927C123.195 31.4324 123.681 30.1273 125.417 30.1587C128.217 30.2094 127.438 35.2319 127.463 38.463H129.922C129.891 36.0026 130.34 31.6269 129.294 29.7406C128.137 27.6537 124.874 27.1349 123.168 28.9376C123.147 28.899 123.145 28.8365 123.137 28.8093L123.066 28.5545C122.993 28.3852 123.075 28.4679 122.956 28.3203C122.679 27.9764 123.518 28.1652 122.329 28.059C121.973 28.0273 121.162 28.0836 120.746 28.0831L120.748 38.4616L123.2 38.4624L123.2 38.4625Z" fill="#FD0000"/>
<path fill-rule="evenodd" clip-rule="evenodd" d="M92.8237 35.0052C91.1056 37.8076 87.5167 36.0583 87.4944 33.2743C87.4665 29.7698 91.8012 29.1589 92.8257 31.5408L95.6672 31.5457C93.7938 25.7736 85.1631 26.8215 85.0361 33.2718C84.9822 36.0096 87.1823 38.3802 89.6655 38.7454C92.6672 39.187 95.0068 37.2062 95.6661 35.0051L92.8237 35.0053V35.0052Z" fill="#FD0000"/>
<path fill-rule="evenodd" clip-rule="evenodd" d="M136.547 35.233C136.765 40.0742 143.427 39.8435 143.961 35.6939C144.295 33.1006 142.424 32.6147 140.532 31.9987C139.718 31.7333 138.734 30.9436 139.758 30.3178C140.296 29.9885 140.687 30.1801 141.009 30.4734C141.606 31.0168 141.257 31.2034 143.704 30.9752C143.485 27.5797 139.125 26.7252 137.426 29.1978C136.444 30.6273 136.778 32.143 137.883 33.0907C138.896 33.9597 140.242 34.0242 141.494 34.9306C141.502 35.8333 141.242 36.3814 140.29 36.3728C139.38 36.3649 139.3 35.758 138.909 35.1725L136.547 35.2331L136.547 35.233Z" fill="#FD0000"/>
<path fill-rule="evenodd" clip-rule="evenodd" d="M79.0527 29.9867C79.4036 30.2864 78.7475 30.2739 80.2666 30.2885L80.2668 38.4639L82.7683 38.462L82.7144 30.2998L84.2533 30.2823L84.2783 28.0908L82.7521 28.0428L82.7479 24.626L80.2664 24.6211L80.2666 28.0837L79.0571 28.0853L79.0529 29.9869L79.0527 29.9867Z" fill="#FD0000"/>
<path fill-rule="evenodd" clip-rule="evenodd" d="M74.561 25.3159L74.56 28.0836L73.3487 28.0846C73.3485 30.6677 73.1407 30.2967 74.5584 30.2816L74.557 38.4618L77.0637 38.4648L77.0035 30.3264L78.5039 30.2711L78.5695 28.0835L77.0135 28.0512L77.058 24.6201L74.5564 24.6248L74.561 25.3159Z" fill="#FD0000"/>
<path fill-rule="evenodd" clip-rule="evenodd" d="M69.7169 38.4625L71.6173 38.4622L72.1668 38.4638L72.168 37.4248V28.082L69.7148 28.0822L69.7155 38.2899L69.7169 38.4625Z" fill="#FD0000"/>
<path fill-rule="evenodd" clip-rule="evenodd" d="M132.303 26.6995L132.311 27.1151L133.384 27.1506C133.403 28.2709 133.164 28.2019 132.37 28.6024L132.291 29.8125C135.276 29.493 134.809 27.3897 134.787 24.624L132.301 24.6242L132.303 26.6995Z" fill="#FD0000"/>
<path fill-rule="evenodd" clip-rule="evenodd" d="M69.7154 24.7971L69.7109 26.8756L72.166 26.8745L72.1667 24.623L71.6172 24.6248L69.7168 24.6245L69.7154 24.7971Z" fill="#FD0000"/>
</svg>
